<?xml version="1.0" encoding="iso-8859-1"?>
<!-- Uploaded to: SVG Repo, www.svgrepo.com, Generator: SVG Repo Mixer Tools -->
<svg fill="#000000" height="800px" width="800px" version="1.1" id="Layer_1" xmlns="http://www.w3.org/2000/svg" xmlns:xlink="http://www.w3.org/1999/xlink" 
	 viewBox="0 0 512 512" xml:space="preserve">
<g>
	<g>
		<path d="M508,332.924c-2.208,0-4,1.792-4,4C504,365.088,481.084,388,452.92,388H59.076C30.912,388,8,365.088,8,336.924
			c0-2.208-1.792-4-4-4s-4,1.792-4,4C0,369.5,26.5,396,59.076,396H452.92c32.58,0,59.08-26.5,59.08-59.076
			C512,334.716,510.208,332.924,508,332.924z"/>
	</g>
</g>
<g>
	<g>
		<path d="M408.86,88H103.14C70.528,88,44,114.5,44,147.08V200c0,2.208,1.792,4,4,4s4-1.792,4-4v-52.92
			C52,118.916,74.94,96,103.14,96h305.72c28.2,0,51.14,22.916,51.14,51.08V200c0,2.208,1.792,4,4,4s4-1.792,4-4v-52.92
			C468,114.5,441.468,88,408.86,88z"/>
	</g>
</g>
<g>
	<g>
		<path d="M59.076,200H37.048C16.62,200,0,216.62,0,237.048V336c0,2.208,1.792,4,4,4s4-1.792,4-4v-98.952
			C8,221.032,21.032,208,37.048,208h22.028C75.024,208,88,221.032,88,237.048V316c0,2.208,1.792,4,4,4s4-1.792,4-4v-78.952
			C96,216.62,79.436,200,59.076,200z"/>
	</g>
</g>
<g>
	<g>
		<path d="M474.952,200H452.92c-20.356,0-36.92,16.62-36.92,37.048V316c0,2.208,1.792,4,4,4s4-1.792,4-4v-78.952
			C424,221.032,436.972,208,452.92,208h22.032C490.968,208,504,221.032,504,237.048V336c0,2.208,1.792,4,4,4s4-1.792,4-4v-98.952
			C512,216.62,495.38,200,474.952,200z"/>
	</g>
</g>
<g>
	<g>
		<path d="M420,292H92c-2.208,0-4,1.792-4,4s1.792,4,4,4h328c2.208,0,4-1.792,4-4S422.208,292,420,292z"/>
	</g>
</g>
<g>
	<g>
		<path d="M92,388c-2.208,0-4,1.792-4,4v24H68v-24c0-2.208-1.792-4-4-4s-4,1.792-4,4v28c0,2.208,1.792,4,4,4h28c2.208,0,4-1.792,4-4
			v-28C96,389.792,94.208,388,92,388z"/>
	</g>
</g>
<g>
	<g>
		<path d="M448,388c-2.208,0-4,1.792-4,4v24h-20v-24c0-2.208-1.792-4-4-4s-4,1.792-4,4v28c0,2.208,1.792,4,4,4h28
			c2.208,0,4-1.792,4-4v-28C452,389.792,450.208,388,448,388z"/>
	</g>
</g>
<g>
	<g>
		<path d="M316,344H114.152C104.144,344,96,335.912,96,325.972V316c0-2.208-1.792-4-4-4s-4,1.792-4,4v9.972
			C88,340.324,99.732,352,114.152,352H316c2.208,0,4-1.792,4-4S318.208,344,316,344z"/>
	</g>
</g>
<g>
	<g>
		<path d="M420,312c-2.208,0-4,1.792-4,4v9.972c0,9.94-8.144,18.028-18.152,18.028H364c-2.208,0-4,1.792-4,4s1.792,4,4,4h33.848
			c14.42,0,26.152-11.676,26.152-26.028V316C424,313.792,422.208,312,420,312z"/>
	</g>
</g>
<g>
	<g>
		<g>
			<path d="M372,108h-24c-2.208,0-4,1.792-4,4s1.792,4,4,4h24c2.208,0,4-1.792,4-4S374.208,108,372,108z"/>
			<path d="M438.264,121.364C430.828,112.872,420.108,108,408.856,108c-0.144,0-0.288,0.008-0.428,0.024
				c-0.14-0.016-0.284-0.024-0.428-0.024h-16c-2.208,0-4,1.792-4,4s1.792,4,4,4h16c0.144,0,0.288-0.008,0.432-0.024
				c0.14,0.016,0.284,0.024,0.428,0.024c8.948,0,17.472,3.88,23.388,10.636c0.792,0.904,1.9,1.364,3.012,1.364
				c0.936,0,1.872-0.328,2.628-0.992C439.552,125.552,439.72,123.028,438.264,121.364z"/>
		</g>
	</g>
</g>
<g>
	<g>
		<g>
			<path d="M44,220h-6.952C27.808,220,20,227.808,20,237.048V244c0,2.208,1.792,4,4,4s4-1.792,4-4v-6.952
				c0-4.904,4.144-9.048,9.048-9.048H44c2.208,0,4-1.792,4-4S46.208,220,44,220z"/>
			<path d="M70.748,224.72c-3.208-3.044-7.352-4.72-11.672-4.72c-2.208,0-4,1.792-4,4s1.792,4,4,4c2.26,0,4.452,0.896,6.172,2.528
				c0.772,0.732,1.764,1.096,2.752,1.096c1.056,0,2.112-0.42,2.9-1.248C72.416,228.772,72.352,226.24,70.748,224.72z"/>
		</g>
	</g>
</g>
</svg>